<?xml version="1.0" standalone="no"?>
<!DOCTYPE svg PUBLIC "-//W3C//DTD SVG 20010904//EN"
 "http://www.w3.org/TR/2001/REC-SVG-20010904/DTD/svg10.dtd">
<svg version="1.0" xmlns="http://www.w3.org/2000/svg"
 width="90.000000pt" height="90.000000pt" viewBox="0 0 90.000000 90.000000"
 preserveAspectRatio="xMidYMid meet">
<metadata>
Created by potrace 1.14, written by Peter Selinger 2001-2017
</metadata>
<g transform="translate(0.000000,90.000000) scale(0.100000,-0.100000)"
fill="#000000" stroke="none">
<path d="M43 624 c-7 -3 -13 -18 -13 -33 0 -20 7 -31 26 -40 21 -9 24 -14 15
-25 -7 -8 -21 -12 -31 -9 -21 6 -28 -11 -9 -22 21 -14 59 5 65 32 6 21 2 31
-22 49 -23 19 -25 24 -13 29 9 3 21 5 27 3 5 -2 11 2 11 7 2 11 -37 17 -56 9z"/>
<path d="M462 604 c-5 -10 -23 -16 -45 -17 -38 -1 -47 -14 -47 -70 0 -35 23
-32 28 4 9 56 52 69 52 15 0 -19 5 -38 10 -41 15 -9 32 4 23 18 -10 16 -4 50
11 60 8 5 7 9 -3 16 -7 5 -10 14 -7 20 4 6 3 11 -3 11 -5 0 -14 -7 -19 -16z"/>
<path d="M120 549 c0 -22 0 -42 -1 -46 0 -4 4 -9 10 -11 6 -2 11 9 11 26 0 16
7 35 15 42 13 11 15 7 15 -29 0 -46 17 -55 26 -13 10 45 13 52 24 52 6 0 8
-15 4 -41 -6 -33 -4 -41 7 -37 9 3 15 22 17 50 l3 45 -66 0 -65 0 0 -38z"/>
<path d="M286 571 c-10 -11 -16 -31 -14 -48 3 -24 7 -28 36 -28 40 0 38 -2 47
53 7 41 6 42 -23 42 -16 0 -37 -9 -46 -19z m44 -13 c0 -22 -17 -41 -29 -34 -8
5 -8 13 -1 27 12 21 30 26 30 7z"/>
<path d="M235 450 c-4 -6 -3 -16 3 -22 6 -6 12 -6 17 2 4 6 3 16 -3 22 -6 6
-12 6 -17 -2z"/>
<path d="M616 451 c-13 -20 -19 -131 -8 -131 6 0 15 14 20 32 12 46 32 48 32
4 0 -41 17 -48 26 -12 9 38 1 61 -24 64 -16 3 -22 10 -22 28 0 24 -14 32 -24
15z"/>
<path d="M30 423 c0 -16 -3 -45 -6 -65 l-7 -38 42 0 c50 0 81 27 81 69 0 41
-24 61 -71 61 -36 0 -39 -2 -39 -27z m78 -26 c4 -34 -13 -57 -40 -57 -18 0
-20 5 -14 31 3 17 6 38 6 46 0 9 8 13 23 11 16 -2 23 -11 25 -31z"/>
<path d="M545 423 c-24 -55 -2 -135 28 -103 9 10 9 13 0 17 -19 7 -16 40 5 53
12 8 13 13 5 16 -7 3 -13 12 -13 20 0 20 -16 18 -25 -3z"/>
<path d="M156 377 c-9 -45 -7 -57 9 -57 8 0 15 9 15 19 0 30 11 51 26 51 8 0
14 4 14 8 0 5 -13 9 -29 9 -24 0 -30 -5 -35 -30z"/>
<path d="M230 396 c0 -7 -3 -28 -6 -45 -5 -24 -3 -31 10 -31 11 0 16 9 16 29
0 16 3 36 6 45 4 11 1 16 -10 16 -9 0 -16 -6 -16 -14z"/>
<path d="M283 365 c13 -56 30 -57 57 -5 23 45 24 50 10 50 -5 0 -16 -15 -24
-32 l-14 -33 -7 33 c-4 17 -13 32 -20 32 -9 0 -10 -10 -2 -45z"/>
<path d="M375 386 c-28 -42 -3 -81 44 -69 30 8 26 21 -6 25 l-28 3 30 15 c38
19 39 44 3 48 -20 2 -31 -3 -43 -22z m45 0 c0 -3 -4 -8 -10 -11 -5 -3 -10 -1
-10 4 0 6 5 11 10 11 6 0 10 -2 10 -4z"/>
<path d="M708 364 c-2 -30 1 -44 9 -44 7 0 13 9 13 20 0 11 9 29 20 40 26 26
25 27 -9 28 -27 1 -29 -2 -33 -44z"/>
<path d="M782 363 l3 -48 35 3 c19 2 36 5 36 5 1 1 4 21 7 45 4 32 2 42 -9 42
-8 0 -14 -9 -14 -19 0 -30 -11 -51 -27 -51 -11 0 -12 8 -7 35 5 29 3 35 -10
35 -14 0 -17 -9 -14 -47z"/>
<path d="M465 370 c-4 -6 5 -10 19 -10 14 0 26 5 26 10 0 6 -9 10 -19 10 -11
0 -23 -4 -26 -10z"/>
</g>
</svg>
